# xmcd
#
# Track frame offsets:
#	150
#	8830
#	24234
#	38281
#	53081
#	67110
#	75185
#	88522
#	101981
#	114273
#	127290
#	151612
#	168444
#	187459
#	205941
#	221478
#	240337
#
# Disc length: 3432 seconds
#
# Revision: 0
# Processed by: cddbd v1.4PL0 Copyright (c) Steve Scherf et al.
# Submitted via: EasyCDDAExtractor 4.6.9.1
#
DISCID=d50d6611
DTITLE=The Blues Brothers Band - The Blues Brothers Complete [CD1/2)
DYEAR=1980
DGENRE=Blues
TTITLE0=Opening: I Can't Turn You Loose
TTITLE1=Everybody Needs Somebody To Love
TTITLE2=Gimme Some Lovin'
TTITLE3=Think
TTITLE4=Soul Man
TTITLE5=Soul Finger
TTITLE6=Messin' With The Kid
TTITLE7=Hey Bartender
TTITLE8=(I Got Every Thing I Need) Almost
TTITLE9=Rubber Biscuit
TTITLE10=Shot Gun Blues
TTITLE11=Groove Me
TTITLE12=I Don't Know
TTITLE13="B" Movie Box Car Blues
TTITLE14=Flip Flop And Fly
TTITLE15=She Caught The Katy
TTITLE16=Peter Gunn Theme
EXTD=
EXTT0=
EXTT1=
EXTT2=
EXTT3=
EXTT4=
EXTT5=
EXTT6=
EXTT7=
EXTT8=
EXTT9=
EXTT10=
EXTT11=
EXTT12=
EXTT13=
EXTT14=
EXTT15=
EXTT16=
PLAYORDER=
